<!DOCTYPE svg PUBLIC "-//W3C//DTD SVG 1.1//EN" "http://www.w3.org/Graphics/SVG/1.1/DTD/svg11.dtd">
<!-- Uploaded to: SVG Repo, www.svgrepo.com, Transformed by: SVG Repo Mixer Tools -->
<svg fill="#add1ff" width="64px" height="64px" viewBox="0 0 1920.00 1920.00" xmlns="http://www.w3.org/2000/svg" stroke="#add1ff">
<g id="SVGRepo_bgCarrier" stroke-width="0" transform="translate(67.19999999999993,67.19999999999993), scale(0.93)">
<rect x="0" y="0" width="1920.00" height="1920.00" rx="960" fill="#000000" strokewidth="0"/>
</g>
<g id="SVGRepo_tracerCarrier" stroke-linecap="round" stroke-linejoin="round"/>
<g id="SVGRepo_iconCarrier"> <path d="m928.806 512-185.984 512h434.304L991.142 512h-62.336Zm419.072 981.875-124.16-341.888h-527.36L572.07 1493.875 451.878 1450.1 839.206 383.987h241.664l387.2 1066.112-120.192 43.776ZM1728.038-.013h-1536c-105.856 0-192 86.144-192 192v1536c0 105.856 86.144 192 192 192h1536c105.856 0 192-86.144 192-192v-1536c0-105.856-86.144-192-192-192Z" fill-rule="evenodd"/> </g>
</svg>